<svg width="1264" height="571" viewBox="0 0 1264 571" fill="none" xmlns="http://www.w3.org/2000/svg">
<path d="M101 18.3032C101 13.5712 101.5 6 101.5 6C101.5 6 102 13.5712 102 18.3032C102 23.0352 102 555.103 102 559.703C102 564.303 101.5 571 101.5 571C101.5 571 101 564.048 101 559.703C101 555.358 101 23.0352 101 18.3032Z" fill="#FCF5EB" fill-opacity="0.2"/>
<path d="M1224.95 497C1235.36 497 1252 497.5 1252 497.5C1252 497.5 1235.36 498 1224.95 498C1214.55 498 44.9462 498 34.8341 498C24.722 498 10.0001 497.5 10.0001 497.5C10.0001 497.5 25.2826 497 34.8341 497C44.3856 497 1214.55 497 1224.95 497Z" fill="#FCF5EB" fill-opacity="0.2"/>
<path d="M1224.95 394C1235.36 394 1252 394.5 1252 394.5C1252 394.5 1235.36 395 1224.95 395C1214.55 395 44.9462 395 34.8341 395C24.722 395 10.0001 394.5 10.0001 394.5C10.0001 394.5 25.2826 394 34.8341 394C44.3856 394 1214.55 394 1224.95 394Z" fill="#FCF5EB" fill-opacity="0.2"/>
<path d="M1236.95 291C1247.36 291 1264 291.5 1264 291.5C1264 291.5 1247.36 292 1236.95 292C1226.55 292 56.9462 292 46.8341 292C36.722 292 22.0001 291.5 22.0001 291.5C22.0001 291.5 37.2826 291 46.8341 291C56.3856 291 1226.55 291 1236.95 291Z" fill="#FCF5EB" fill-opacity="0.2"/>
<path d="M1225.95 188C1236.36 188 1253 188.5 1253 188.5C1253 188.5 1236.36 189 1225.95 189C1215.55 189 45.9462 189 35.8341 189C25.722 189 11.0001 188.5 11.0001 188.5C11.0001 188.5 26.2826 188 35.8341 188C45.3856 188 1215.55 188 1225.95 188Z" fill="#FCF5EB" fill-opacity="0.2"/>
<path d="M1214.95 85C1225.36 85 1242 85.5001 1242 85.5001C1242 85.5001 1225.36 86.0001 1214.95 86.0001C1204.55 86.0001 34.9462 86 24.8341 86C14.722 86 6.72122e-05 85.5 6.72122e-05 85.5C6.72122e-05 85.5 15.2826 85 24.8341 85C34.3856 85 1204.55 85.0001 1214.95 85Z" fill="#FCF5EB" fill-opacity="0.2"/>
<path d="M188 18.3032C188 13.5712 188.5 6 188.5 6C188.5 6 189 13.5712 189 18.3032C189 23.0352 189 555.103 189 559.703C189 564.303 188.5 571 188.5 571C188.5 571 188 564.048 188 559.703C188 555.358 188 23.0352 188 18.3032Z" fill="#FCF5EB" fill-opacity="0.2"/>
<path d="M296 18.3032C296 13.5712 296.5 6 296.5 6C296.5 6 297 13.5712 297 18.3032C297 23.0352 297 555.103 297 559.703C297 564.303 296.5 571 296.5 571C296.5 571 296 564.048 296 559.703C296 555.358 296 23.0352 296 18.3032Z" fill="#FCF5EB" fill-opacity="0.2"/>
<path d="M404 18.3032C404 13.5712 404.5 6 404.5 6C404.5 6 405 13.5712 405 18.3032C405 23.0352 405 555.103 405 559.703C405 564.303 404.5 571 404.5 571C404.5 571 404 564.048 404 559.703C404 555.358 404 23.0352 404 18.3032Z" fill="#FCF5EB" fill-opacity="0.2"/>
<path d="M512 18.3032C512 13.5712 512.5 6 512.5 6C512.5 6 513 13.5712 513 18.3032C513 23.0352 513 555.103 513 559.703C513 564.303 512.5 571 512.5 571C512.5 571 512 564.048 512 559.703C512 555.358 512 23.0352 512 18.3032Z" fill="#FCF5EB" fill-opacity="0.2"/>
<path d="M621 18.3032C621 13.5712 621.5 6 621.5 6C621.5 6 622 13.5712 622 18.3032C622 23.0352 622 555.103 622 559.703C622 564.303 621.5 571 621.5 571C621.5 571 621 564.048 621 559.703C621 555.358 621 23.0352 621 18.3032Z" fill="#FCF5EB" fill-opacity="0.2"/>
<path d="M837 18.3032C837 13.5712 837.5 6 837.5 6C837.5 6 838 13.5712 838 18.3032C838 23.0352 838 555.103 838 559.703C838 564.303 837.5 571 837.5 571C837.5 571 837 564.048 837 559.703C837 555.358 837 23.0352 837 18.3032Z" fill="#FCF5EB" fill-opacity="0.2"/>
<path d="M945 18.3032C945 13.5712 945.5 6 945.5 6C945.5 6 946 13.5712 946 18.3032C946 23.0352 946 555.103 946 559.703C946 564.303 945.5 571 945.5 571C945.5 571 945 564.048 945 559.703C945 555.358 945 23.0352 945 18.3032Z" fill="#FCF5EB" fill-opacity="0.2"/>
<path d="M1054 18.3032C1054 13.5712 1054.5 6 1054.5 6C1054.5 6 1055 13.5712 1055 18.3032C1055 23.0352 1055 555.103 1055 559.703C1055 564.303 1054.5 571 1054.5 571C1054.5 571 1054 564.048 1054 559.703C1054 555.358 1054 23.0352 1054 18.3032Z" fill="#FCF5EB" fill-opacity="0.2"/>
<path d="M1160 12.3032C1160 7.57119 1160.5 0 1160.5 0C1160.5 0 1161 7.57119 1161 12.3032C1161 17.0352 1161 549.103 1161 553.703C1161 558.303 1160.5 565 1160.5 565C1160.5 565 1160 558.048 1160 553.703C1160 549.358 1160 17.0352 1160 12.3032Z" fill="#FCF5EB" fill-opacity="0.2"/>
</svg>
