<svg width="861" height="747" viewBox="0 0 861 747" fill="none" xmlns="http://www.w3.org/2000/svg">
<path d="M860.921 746.5L191.921 746.5L72.1711 155.044L151.691 110.311L860.921 746.5Z" fill="#B38A6D" fill-opacity="0.4"/>
<path d="M52.5493 158.046C53.3111 159.347 54.9858 159.785 56.2893 159.024L70.528 150.688L67.7659 145.97L53.5272 154.306C52.2259 155.067 51.788 156.742 52.5493 158.046Z" fill="#0F0F0F"/>
<path d="M0.396592 62.4076L58.167 161.088L62.8199 158.364L5.04954 59.6836L0.396592 62.4076Z" fill="#333333"/>
<path d="M105.713 0.752735L0.395508 62.4091L3.52859 67.7608L108.846 6.10449L105.713 0.752735Z" fill="#333333"/>
<path d="M54.7876 143.34L66.4668 163.29L71.9687 160.069L60.2895 140.119L54.7876 143.34Z" fill="#232323"/>
<path d="M164.749 92.36C165.511 93.6614 165.073 95.3361 163.771 96.1001L149.532 104.436L146.77 99.7178L161.009 91.3821C162.31 90.6202 163.985 91.0581 164.749 92.36Z" fill="#0F0F0F"/>
<path d="M102.229 2.79429L159.999 101.474L164.652 98.7505L106.882 0.0703125L102.229 2.79429Z" fill="#333333"/>
<path d="M145.329 90.3382L157.008 110.288L162.51 107.067L150.831 87.1172L145.329 90.3382Z" fill="#232323"/>
<path d="M67.7898 55.409C68.0021 55.2847 68.2167 55.161 68.4306 55.0394C68.7752 54.8413 69.1215 54.6459 69.4665 54.4548C69.6418 54.3577 69.8165 54.2628 69.9912 54.1678C70.4266 53.9312 70.863 53.6994 71.2983 53.472C71.8316 53.1964 72.3631 52.9273 72.8945 52.6673C73.3416 52.4476 73.7892 52.2349 74.2329 52.0282C74.2596 52.0144 74.2857 52.0028 74.3118 51.9911C74.8317 51.7489 75.3514 51.5159 75.8689 51.2916C76.3272 51.0909 76.786 50.8973 77.243 50.7101C77.5919 50.5662 77.9397 50.4266 78.2869 50.2891C78.4999 50.2064 78.7107 50.1232 78.9232 50.0427C79.3948 49.8617 79.8641 49.6893 80.3317 49.5233C80.9091 49.3169 81.4858 49.1219 82.0576 48.937C82.5441 48.7784 83.0277 48.6305 83.5081 48.4863L83.5206 48.4827C84.1134 48.3056 84.7027 48.1415 85.2865 47.9898C85.789 47.8584 86.2892 47.7355 86.7828 47.6202C87.1413 47.5364 87.496 47.4585 87.8474 47.3844C88.1061 47.3298 88.3664 47.278 88.6217 47.2272C89.146 47.1268 89.6638 47.0339 90.1759 46.9534C90.8252 46.8511 91.4635 46.7644 92.093 46.6938C92.6201 46.6356 93.14 46.5871 93.6495 46.5521C93.6728 46.5512 93.6966 46.5482 93.7199 46.5474C94.4103 46.4997 95.0853 46.4756 95.7438 46.4702C96.3352 46.4658 96.9156 46.4769 97.4797 46.5068C97.8755 46.5273 98.2642 46.5574 98.6463 46.5951C98.9949 46.6286 99.337 46.6696 99.6725 46.7182C100.343 46.8152 100.987 46.9374 101.604 47.0918C102.529 47.3198 103.393 47.6126 104.186 47.9674C106.177 48.8616 107.731 50.1559 108.732 51.8656L131.082 90.0431L67.0087 127.554L44.6584 89.3763C43.6575 87.6666 43.2899 85.6775 43.4849 83.5035C43.564 82.6365 43.7311 81.7417 43.985 80.8236C44.1545 80.2108 44.3614 79.587 44.6046 78.9566C44.6631 78.8035 44.7237 78.6511 44.7871 78.497C44.9998 77.9831 45.2348 77.4635 45.4937 76.941C45.7437 76.4345 46.0181 75.9229 46.3115 75.4094C46.5718 74.9517 46.8511 74.4921 47.1445 74.0316C47.2188 73.915 47.2931 73.7984 47.3695 73.6823C47.6616 73.2353 47.9706 72.7858 48.2936 72.3353C48.6632 71.821 49.0492 71.3063 49.4584 70.7907C49.7793 70.3835 50.1115 69.977 50.4579 69.5695C50.5286 69.4842 50.6015 69.3995 50.6738 69.317C51.0053 68.931 51.3487 68.5435 51.6986 68.1577C52.0414 67.7816 52.3928 67.4077 52.7539 67.0318C53.0729 66.7025 53.3962 66.3743 53.7287 66.0462C53.8375 65.9386 53.9464 65.831 54.0574 65.724C54.4161 65.3751 54.7839 65.0263 55.1605 64.6798C55.6015 64.2717 56.0533 63.8664 56.5165 63.4618C56.8901 63.1353 57.2724 62.811 57.6589 62.4878C57.7206 62.4371 57.7829 62.3842 57.8445 62.3334C58.242 62.0039 58.6486 61.6744 59.0612 61.3489C59.4481 61.0419 59.8409 60.7388 60.2402 60.4374C60.5768 60.1819 60.9172 59.9296 61.2597 59.678C61.3993 59.5761 61.5416 59.4727 61.6834 59.3714C62.0815 59.0835 62.4855 58.7995 62.8959 58.5172C63.3827 58.181 63.8781 57.8471 64.3811 57.5198C64.7903 57.2509 65.206 56.9838 65.6255 56.72C65.6723 56.6907 65.717 56.6609 65.7633 56.6338C66.2187 56.3471 66.6795 56.0664 67.1467 55.7873C67.3575 55.6603 67.5698 55.536 67.7827 55.4095L67.7898 55.409Z" fill="#282828"/>
<path d="M115.657 99.0807L131.083 90.0501L108.732 51.8726C107.731 50.1629 106.177 48.8687 104.186 47.9745C103.393 47.6196 102.529 47.3268 101.604 47.0988C100.987 46.9466 100.341 46.8217 99.6726 46.7252C99.3371 46.6767 98.9951 46.6356 98.6464 46.6021C98.2643 46.5645 97.875 46.5364 97.4798 46.5138C96.9158 46.4839 96.3359 46.4706 95.7439 46.4772C95.0854 46.4826 94.4099 46.5088 93.72 46.5544C93.6968 46.5552 93.6729 46.5582 93.6497 46.5591C93.1374 46.5957 92.618 46.6421 92.0931 46.7008C91.4642 46.7692 90.8259 46.856 90.176 46.9604C89.6639 47.0409 89.1467 47.1317 88.6219 47.2342C88.3643 47.2845 88.1062 47.3369 87.8475 47.3914C87.494 47.465 87.1393 47.5429 86.7829 47.6272C86.42 47.7099 86.0549 47.8012 85.6892 47.8946L115.658 99.0856L115.657 99.0807Z" fill="#0F0F0F"/>
<path d="M45.4966 76.9468C45.2378 77.4694 45.0028 77.989 44.79 78.5029C44.7267 78.6569 44.666 78.8094 44.6076 78.9624C44.3638 79.595 44.1553 80.216 43.9879 80.8294C43.734 81.7476 43.5669 82.6423 43.4878 83.5093C43.2928 85.6834 43.6604 87.6725 44.6613 89.3822L67.0116 127.56L73.5401 123.738L45.7995 76.3527C45.6946 76.5513 45.5945 76.7488 45.4972 76.9446L45.4966 76.9468Z" fill="white"/>
<path d="M50.6752 69.3196C50.6023 69.4043 50.5316 69.4896 50.4593 69.5721C50.1151 69.9802 49.7806 70.3862 49.4597 70.7934C49.0527 71.3095 48.6646 71.8236 48.2949 72.338C48.179 72.4991 48.0653 72.6607 47.9543 72.8207L76.6831 121.894L80.353 119.745L50.7667 69.2075C50.7366 69.2435 50.7043 69.2788 50.6741 69.3148L50.6752 69.3196Z" fill="white"/>
<path d="M79.9862 76.2468C80.645 75.8611 81.3059 75.4852 81.9673 75.1163C83.3706 74.335 84.7767 73.5959 86.1785 72.8995C89.1334 71.431 92.0754 70.1528 94.9666 69.0689C96.5132 68.4887 98.0436 67.962 99.5545 67.4924C115.389 62.5669 128.972 63.7484 133.577 71.6137L162.83 121.582L78.9686 170.679L49.7154 120.711C45.5986 113.678 49.6531 103.005 59.1649 92.6767C60.2472 91.5002 61.4015 90.331 62.6206 89.1695C64.8608 87.0392 67.3252 84.9421 69.9917 82.9186C71.2405 81.97 72.5312 81.0371 73.865 80.1246C75.8175 78.786 77.8605 77.4895 79.984 76.2463L79.9862 76.2468Z" fill="#3A3A3A"/>
<path d="M145.368 131.805L162.83 121.582L133.577 71.6137C129.677 64.9518 119.339 63.0855 106.647 65.6599L145.369 131.803L145.368 131.805Z" fill="#282828"/>
<path d="M49.7154 120.711L78.9686 170.679L88.7754 164.938L52.0281 102.168C47.9358 109.212 46.863 115.835 49.7154 120.711Z" fill="white"/>
<path d="M59.1649 92.6767C57.2235 94.7838 55.5094 96.9055 54.0464 99.0085L91.6566 163.249L98.4682 159.261L59.362 92.4622C59.2974 92.5329 59.2307 92.6031 59.1661 92.6738L59.1649 92.6767Z" fill="white"/>
<path d="M162.83 121.584C156.39 110.584 132.397 112.657 109.239 126.214C86.0818 139.771 72.5289 159.679 78.9686 170.679C85.4082 181.679 109.402 179.605 132.559 166.048C155.717 152.491 169.269 132.584 162.83 121.584Z" fill="#848484"/>
<path d="M154.18 137.453C151.525 141.354 148.031 145.245 143.798 149.017C139.388 152.948 134.372 156.568 128.891 159.777C123.408 162.987 117.799 165.587 112.212 167.509C106.851 169.354 101.747 170.495 97.0457 170.901C92.4478 171.299 88.4934 170.972 85.288 169.934C83.2478 169.271 81.5827 168.338 80.3138 167.141C80.5332 168.022 80.8647 168.844 81.3094 169.603C82.6099 171.825 84.8425 173.463 87.9439 174.467C91.1493 175.506 95.1036 175.832 99.7015 175.434C104.403 175.029 109.507 173.887 114.868 172.042C120.454 170.121 126.067 167.519 131.547 164.31C137.03 161.1 142.044 157.482 146.454 153.551C150.687 149.779 154.181 145.887 156.836 141.986C159.433 138.172 161.085 134.564 161.748 131.26C162.388 128.063 162.055 125.316 160.754 123.094C160.31 122.334 159.755 121.643 159.095 121.021C159.515 122.712 159.516 124.622 159.095 126.725C158.431 130.029 156.78 133.636 154.183 137.451L154.18 137.453Z" fill="#353535"/>
<path d="M110.512 128.388C115.992 125.18 121.604 122.578 127.191 120.656C128.878 120.076 130.541 119.565 132.173 119.125C135.725 118.166 139.137 117.543 142.359 117.265C146.957 116.867 150.912 117.193 154.117 118.232C156.157 118.894 157.822 119.828 159.091 121.024C159.511 122.716 159.512 124.625 159.091 126.729C158.428 130.032 156.777 133.64 154.179 137.455C151.522 141.355 148.03 145.247 143.795 149.019C139.385 152.95 134.369 156.57 128.888 159.778C123.405 162.988 117.794 165.588 112.209 167.513C106.847 169.357 101.744 170.499 97.0423 170.904C92.4444 171.302 88.49 170.976 85.2846 169.937C83.2444 169.275 81.5793 168.341 80.3105 167.145C79.8904 165.453 79.8894 163.544 80.3103 161.44C80.9735 158.137 82.6248 154.529 85.2224 150.714C87.0422 148.041 89.2574 145.371 91.8309 142.742C93.0137 141.534 94.2727 140.335 95.6046 139.148C100.015 135.217 105.031 131.596 110.514 128.389L110.512 128.388Z" fill="#F8FFA1"/>
<path d="M65.6338 90.6276L92.0244 135.707C91.2443 136.45 90.4934 137.197 89.7738 137.947C89.4788 138.255 89.1887 138.562 88.9057 138.868L62.5151 93.7895C63.4912 92.7282 64.5328 91.6724 65.6322 90.6249L65.6338 90.6276Z" fill="#161616"/>
<path d="M66.0911 91.4075L92.0243 135.705C91.2441 136.449 90.4932 137.196 89.7736 137.946L63.8707 93.6999C64.5764 92.9321 65.3183 92.167 66.0916 91.4054L66.0911 91.4075Z" fill="#282828"/>
<path d="M75.7781 82.4662L102.169 127.545C101.149 128.245 100.154 128.955 99.1899 129.678C99.1124 129.737 99.0349 129.795 98.958 129.851C98.8631 129.923 98.7682 129.995 98.6733 130.067L72.2827 84.9877C73.4081 84.1314 74.5756 83.2908 75.7781 82.4662Z" fill="#161616"/>
<path d="M76.1102 83.0303L102.169 127.543C101.149 128.242 100.154 128.953 99.1905 129.676L73.1442 85.1853C74.1048 84.4566 75.0936 83.7352 76.1102 83.0303Z" fill="#282828"/>
<path d="M83.0852 77.949C84.3507 77.2447 85.6208 76.5761 86.8844 75.9496L113.275 121.029C113.174 121.078 113.074 121.128 112.973 121.18C112.904 121.213 112.837 121.248 112.768 121.283C111.671 121.836 110.572 122.418 109.473 123.03L83.0825 77.9506L83.0852 77.949Z" fill="#161616"/>
<path d="M83.3539 78.404C84.4549 77.7996 85.5579 77.2234 86.66 76.6769L112.772 121.279C111.675 121.832 110.575 122.414 109.477 123.026L83.3539 78.404Z" fill="#282828"/>
<path d="M94.8133 72.4938C96.2074 71.9683 97.59 71.4952 98.9526 71.0721L125.343 116.151C125.065 116.237 124.783 116.327 124.503 116.418C123.415 116.77 122.314 117.155 121.205 117.571L94.8139 72.4916L94.8133 72.4938Z" fill="#161616"/>
<path d="M95.2842 73.2953C96.4004 72.8885 97.5077 72.5163 98.6021 72.1753L124.503 116.418C123.415 116.77 122.314 117.155 121.205 117.571L95.2842 73.2953Z" fill="#282828"/>
<path d="M110.512 128.388C115.992 125.18 121.604 122.578 127.191 120.656C128.878 120.076 130.541 119.565 132.173 119.125C135.035 129.438 130.753 140.78 121.08 146.441C111.407 152.104 99.4202 150.286 91.8309 142.742C93.0137 141.534 94.2727 140.335 95.6046 139.148C100.015 135.217 105.031 131.596 110.514 128.389L110.512 128.388Z" fill="white"/>
</svg>
