<svg width="276" height="46" viewBox="0 0 276 46" fill="none" xmlns="http://www.w3.org/2000/svg">
<path d="M267.008 37.1283L266.04 36.878L267.008 37.1283ZM275.996 2.09425C276.048 1.54443 275.644 1.05651 275.094 1.00445L266.134 0.156175C265.584 0.104121 265.097 0.507645 265.045 1.05747C264.992 1.6073 265.396 2.09522 265.946 2.14727L273.91 2.9013L273.156 10.8657C273.104 11.4155 273.508 11.9034 274.057 11.9555C274.607 12.0075 275.095 11.604 275.147 11.0542L275.996 2.09425ZM0 45.8935H246.301V43.8935H0V45.8935ZM246.301 45.8935C248.296 45.8935 253.049 46.3033 257.508 45.5146C261.975 44.7245 266.612 42.6534 267.976 37.3786L266.04 36.878C264.977 40.9872 261.38 42.7987 257.16 43.5452C252.931 44.2931 248.544 43.8935 246.301 43.8935V45.8935ZM267.976 37.3786C268.965 33.553 267.958 29.975 266.815 26.7629C266.228 25.1144 265.628 23.6237 265.152 22.112C264.683 20.6225 264.375 19.2319 264.375 17.9002H262.375C262.375 19.5266 262.749 21.1404 263.244 22.7131C263.733 24.2635 264.382 25.8928 264.931 27.4336C266.058 30.6 266.867 33.6779 266.04 36.878L267.976 37.3786ZM264.375 17.9002C264.375 15.2783 265.664 12.7274 267.778 10.1715C269.89 7.61874 272.728 5.17705 275.637 2.77061L274.363 1.22939C271.46 3.62998 268.485 6.1802 266.237 8.89665C263.993 11.61 262.375 14.6057 262.375 17.9002H264.375Z" fill="#AF4B0F"/>
</svg>
